<svg width="111" height="102" viewBox="0 0 111 102" fill="none" xmlns="http://www.w3.org/2000/svg">
<path d="M43 53C43 62.9411 51.0589 71 61 71L91 71C93.7614 71 96 68.7614 96 66L96 39C96 33.4772 91.5228 29 86 29L48 29C45.2386 29 43 31.2386 43 34L43 53Z" fill="#FFF1DA"/>
<path d="M63.571 57.4477C62.6732 57.6489 61.7987 58.0217 61.0018 58.5425C58.9258 59.8663 57.7179 61.756 58.3042 62.7629C58.8904 63.7697 61.0487 63.5122 63.1247 62.1884C63.9323 61.686 64.6497 61.0438 65.2328 60.3016C65.5034 59.943 65.552 59.4963 65.3569 59.1623L64.5953 57.8543C64.4015 57.5192 63.9996 57.3599 63.571 57.4477Z" fill="#D5D6DB"/>
<path d="M58.3578 39.5923C57.7067 39.7383 57.0725 40.0087 56.4946 40.3864C54.9897 41.3461 54.1133 42.7163 54.5381 43.4458C54.9628 44.1752 56.5284 43.9884 58.0332 43.0288C58.6188 42.6643 59.139 42.1984 59.5619 41.6602C59.7578 41.4003 59.793 41.0766 59.6515 40.8344L59.1 39.8873C58.9597 39.6445 58.6685 39.5287 58.3578 39.5923Z" fill="#D5D6DB"/>
<path d="M49.8876 40.34C49.7427 40.3239 49.5882 40.3625 49.4541 40.4482L45.919 42.7026C45.6233 42.8906 45.505 43.2527 45.655 43.5114C45.6893 43.5707 45.7362 43.6214 45.7932 43.6604L54.5063 49.6699L66.2941 42.1524L49.8876 40.34Z" fill="#029BC5"/>
<path d="M87.1525 39.4902L55.0731 59.6999L36.0941 67.2575L26.415 69.1829L25.3502 67.3723L78.8217 34.3336C80.4152 33.3448 82.1904 32.7379 83.9677 32.5744C84.746 32.507 85.5146 32.5329 86.2557 32.6512C86.9128 32.7509 87.536 32.9432 88.1069 33.2224C88.744 33.5387 89.9568 33.5752 90.3495 34.2055C90.3509 34.2045 91.2775 37.0981 87.1525 39.4902V39.4902Z" fill="#E1E6E9"/>
<path d="M55.4984 57.0258L41.6205 79.1655C41.4472 79.4765 41.5501 79.8247 41.8501 79.9433C42.0342 80.0161 42.2596 79.9874 42.4489 79.867L45.9813 77.6244C46.6607 77.1929 47.2623 76.6448 47.7489 76.0141L74.6623 44.3497L55.4984 57.0258Z" fill="#029BC5"/>
<path d="M20.479 56.2866C20.2475 56.2074 19.972 56.2485 19.7394 56.3967L16.8195 58.2577C16.4216 58.5111 16.2631 58.9982 16.4652 59.3459C16.5038 59.412 16.5538 59.4702 16.6138 59.5181L24.7948 66.075L33.3963 60.6984L20.479 56.2866Z" fill="#029BC5"/>
<path d="M27.5368 67.257L23.1336 73.4283C23.0691 73.517 23.0842 73.6283 23.1675 73.6768C23.2275 73.7118 23.3095 73.7055 23.3761 73.6608L26.1049 71.9304C26.1261 71.917 26.1453 71.9001 26.1611 71.8809L32.595 64.0524L27.5368 67.257Z" fill="#029BC5"/>
<path d="M85.7292 32.9173C84.9661 32.7946 84.1744 32.7685 83.3727 32.839C82.5921 33.9311 82.0933 35.158 81.9258 36.3972C81.9136 36.6461 82.1141 36.8253 82.3738 36.7974C82.4545 36.7886 82.5348 36.7603 82.6071 36.7148L87.6358 33.5104C87.0478 33.2203 86.4059 33.0206 85.7292 32.9173Z" fill="#029BC5"/>
<path d="M74.7704 38.8098L78.0535 36.7348L81.1117 41.94L77.8285 44.015L74.7704 38.8098Z" fill="#D5D6DB"/>
<path d="M72.7044 40.8685C72.3088 41.1193 72.1506 41.6014 72.3515 41.9452L72.6769 42.5021C72.891 42.8371 73.3797 42.896 73.7685 42.6336C74.1385 42.3837 74.2876 41.9295 74.1092 41.5941L73.7838 41.0372C73.5831 40.6937 73.1001 40.6181 72.7044 40.8685V40.8685Z" fill="#3A556A"/>
<path d="M69.7535 42.7025C69.3578 42.9533 69.1997 43.4354 69.4006 43.7791L69.726 44.3361C69.94 44.6711 70.4287 44.73 70.8175 44.4676C71.1876 44.2177 71.3366 43.7635 71.1583 43.4281L70.8329 42.8711C70.632 42.5278 70.1489 42.4522 69.7535 42.7025V42.7025Z" fill="#3A556A"/>
<path d="M66.8015 44.5369C66.4063 44.788 66.2487 45.2695 66.4494 45.613L66.7749 46.1699C66.9889 46.5049 67.4776 46.5638 67.8664 46.3014C68.2365 46.0515 68.3855 45.5973 68.2072 45.262L67.8817 44.705C67.6809 44.3612 67.1973 44.286 66.8015 44.5369V44.5369Z" fill="#3A556A"/>
<path d="M63.8506 46.3709C63.4554 46.622 63.2978 47.1035 63.4985 47.447L63.824 48.0039C64.038 48.339 64.5267 48.3979 64.9155 48.1355C65.2856 47.8856 65.4346 47.4313 65.2563 47.0959L64.9308 46.539C64.7298 46.1953 64.2462 46.12 63.8506 46.3709V46.3709Z" fill="#3A556A"/>
<path d="M60.9 48.2049C60.5046 48.4561 60.3469 48.9378 60.5477 49.2815L60.8733 49.8387C61.0741 50.1821 61.5574 50.2574 61.9529 50.0067C62.3485 49.756 62.5064 49.2743 62.3057 48.9308L61.9801 48.3736C61.7798 48.0298 61.2966 47.9541 60.9009 48.2044C60.9005 48.2046 60.9004 48.2047 60.9 48.2049Z" fill="#3A556A"/>
<path d="M57.949 50.0389C57.5536 50.2901 57.3959 50.7718 57.5967 51.1155L57.9224 51.6726C58.1231 52.0161 58.6064 52.0914 59.002 51.8407C59.3975 51.59 59.5554 51.1083 59.3547 50.7648L59.0291 50.2076C58.8288 49.8638 58.3456 49.7881 57.9499 50.0383C57.9495 50.0386 57.9492 50.0388 57.949 50.0389Z" fill="#3A556A"/>
<path d="M54.9979 51.8728C54.6025 52.124 54.4449 52.6057 54.6457 52.9493L54.9713 53.5065C55.1725 53.8496 55.6561 53.9241 56.0512 53.6731C56.4456 53.4225 56.6032 52.9418 56.4034 52.5988L56.0778 52.0416C55.8771 51.6979 55.3938 51.6222 54.9979 51.8728Z" fill="#3A556A"/>
<path d="M52.0468 53.7067C51.6514 53.958 51.4937 54.4397 51.6946 54.7833L52.0202 55.3405C52.2214 55.6837 52.705 55.7581 53.1001 55.5071C53.4945 55.2565 53.6521 54.7758 53.4523 54.4328L53.1267 53.8756C52.926 53.5318 52.4427 53.4562 52.0468 53.7067Z" fill="#3A556A"/>
<path d="M49.096 55.5406C48.7005 55.7918 48.5429 56.2735 48.7437 56.6172L49.0693 57.1743C49.2705 57.5175 49.7541 57.592 50.1492 57.3409C50.5436 57.0903 50.7012 56.6097 50.5014 56.2666L50.1758 55.7094C49.975 55.3658 49.4917 55.2902 49.096 55.5406Z" fill="#3A556A"/>
<path d="M46.1441 57.3751C45.7485 57.6258 45.5906 58.1074 45.7914 58.4509L45.7918 58.4516L46.1174 59.0088C46.3186 59.352 46.8022 59.4265 47.1973 59.1754C47.5917 58.9248 47.7493 58.4442 47.5495 58.1011L47.2239 57.5439C47.0233 57.2002 46.5399 57.1245 46.1441 57.3751Z" fill="#3A556A"/>
<path d="M43.1939 59.2084C42.7984 59.4591 42.6405 59.9408 42.8412 60.2843L42.8416 60.285L43.1672 60.8422C43.3685 61.1853 43.8521 61.2598 44.2472 61.0088C44.6416 60.7582 44.7992 60.2775 44.5994 59.9345L44.2738 59.3773C44.073 59.0337 43.5896 58.958 43.1939 59.2084Z" fill="#3A556A"/>
</svg>
